<?xml version="1.0" encoding="UTF-8"?>
<svg width="752pt" height="752pt" version="1.1" viewBox="0 0 752 752" xmlns="http://www.w3.org/2000/svg">
 <g fill="#fff">
  <path d="m265.01 551.75c-7.6484 0-13.875 6.2227-13.875 13.875s6.2227 13.875 13.875 13.875c7.6484 0 13.875-6.2227 13.875-13.875-0.003906-7.6523-6.2266-13.875-13.875-13.875z"/>
  <path d="m195.63 320.5h50.871c2.5547 0 4.625 2.0703 4.625 4.625 0 2.5547-2.0703 4.625-4.625 4.625h-50.871v157.24h360.73v-27.75h-41.625c-2.5547 0-4.625-2.0703-4.625-4.625 0-2.5547 2.0703-4.625 4.625-4.625h41.625l0.003906-166.49h-360.74zm198.87 115.62c-5.1094 0-9.25-4.1406-9.25-9.25s4.1406-9.25 9.25-9.25 9.25 4.1406 9.25 9.25-4.1406 9.25-9.25 9.25zm73.996-4.625h-46.25c-2.5547 0-4.625-2.0703-4.625-4.625s2.0703-4.625 4.625-4.625h46.25c2.5547 0 4.625 2.0703 4.625 4.625s-2.0703 4.625-4.625 4.625zm18.5 32.371c-5.1094 0-9.25-4.1406-9.25-9.25s4.1406-9.25 9.25-9.25 9.25 4.1406 9.25 9.25-4.1406 9.25-9.25 9.25zm-32.371-120.24v-37c0-2.5547 2.0703-4.625 4.625-4.625h55.496c1.6016 0 3.0898 0.83203 3.9336 2.1953s0.91797 3.0664 0.20312 4.5l-8.2148 16.43 8.0391 16.082c1.8711 3.043-0.30469 7.043-3.9453 7.043h-0.019531-50.871v32.375c0 2.5547-2.0703 4.625-4.625 4.625-2.5547 0-4.625-2.0703-4.625-4.625v-37zm-18.5 36.996c0 2.5547-2.0703 4.625-4.625 4.625h-184.99c-7.6484 0-13.875 6.2227-13.875 13.875s6.2227 13.875 13.875 13.875h83.246c12.75 0 23.125 10.375 23.125 23.125s-10.375 23.125-23.125 23.125h-46.25c-2.5547 0-4.625-2.0703-4.625-4.625s2.0703-4.625 4.625-4.625h46.25c7.6484 0 13.875-6.2227 13.875-13.875s-6.2227-13.875-13.875-13.875h-83.246c-12.75 0-23.125-10.375-23.125-23.125s10.375-23.125 23.125-23.125h184.99c2.5547 0 4.625 2.0703 4.625 4.625zm-32.375-36.996c5.1094 0 9.25 4.1406 9.25 9.25s-4.1406 9.25-9.25 9.25-9.25-4.1406-9.25-9.25 4.1445-9.25 9.25-9.25zm-27.75 0c5.1094 0 9.25 4.1406 9.25 9.25s-4.1406 9.25-9.25 9.25c-5.1055 0-9.25-4.1406-9.25-9.25s4.1445-9.25 9.25-9.25zm-27.746 0c5.1055 0 9.25 4.1406 9.25 9.25s-4.1445 9.25-9.25 9.25c-5.1055 0-9.25-4.1406-9.25-9.25s4.1406-9.25 9.25-9.25zm-27.75 0c5.1055 0 9.25 4.1406 9.25 9.25s-4.1445 9.25-9.25 9.25c-5.1055 0-9.25-4.1406-9.25-9.25s4.1445-9.25 9.25-9.25zm-27.75 0c5.1055 0 9.25 4.1406 9.25 9.25s-4.1445 9.25-9.25 9.25c-5.1055 0-9.25-4.1406-9.25-9.25s4.1445-9.25 9.25-9.25z"/>
  <path d="m501.36 327.2c-0.65234-1.3008-0.65234-2.8359 0-4.1367l5.9023-11.805h-43.391v27.75h43.391z"/>
  <path d="m468.5 218.76c12.75 0 23.125-10.375 23.125-23.125s-10.375-23.125-23.125-23.125-23.125 10.375-23.125 23.125c0.003906 12.75 10.375 23.125 23.125 23.125z"/>
  <path d="m552.67 255.76h-353.34c-17.34 0-31.449 14.109-31.449 31.449v196.09c0 17.34 14.109 31.449 31.449 31.449h353.34c17.34 0 31.449-14.109 31.449-31.449v-196.1c0-17.34-14.105-31.445-31.449-31.445zm12.949 235.86c0 2.5547-2.0703 4.625-4.625 4.625h-369.98c-2.5547 0-4.625-2.0703-4.625-4.625v-212.74c0-2.5547 2.0703-4.625 4.625-4.625h369.98c2.5547 0 4.625 2.0703 4.625 4.625z"/>
  <path d="m560.99 214.13c0 5.1094-4.1406 9.25-9.2461 9.25-5.1094 0-9.25-4.1406-9.25-9.25 0-5.1094 4.1406-9.25 9.25-9.25 5.1055 0 9.2461 4.1406 9.2461 9.25"/>
  <path d="m403.75 186.38c0 5.1094-4.1406 9.25-9.25 9.25s-9.25-4.1406-9.25-9.25c0-5.1055 4.1406-9.25 9.25-9.25s9.25 4.1445 9.25 9.25"/>
  <path d="m283.5 204.88c0 5.1094-4.1406 9.25-9.25 9.25-5.1055 0-9.2461-4.1406-9.2461-9.25 0-5.1094 4.1406-9.25 9.2461-9.25 5.1094 0 9.25 4.1406 9.25 9.25"/>
  <path d="m560.99 547.12c0 5.1055-4.1406 9.25-9.2461 9.25-5.1094 0-9.25-4.1445-9.25-9.25 0-5.1094 4.1406-9.25 9.25-9.25 5.1055 0 9.2461 4.1406 9.2461 9.25"/>
  <path d="m450 565.62c0 5.1094-4.1445 9.25-9.25 9.25-5.1094 0-9.25-4.1406-9.25-9.25 0-5.1055 4.1406-9.2461 9.25-9.2461 5.1055 0 9.25 4.1406 9.25 9.2461"/>
  <path d="m209.51 547.12c0 5.1055-4.1406 9.25-9.25 9.25-5.1094 0-9.25-4.1445-9.25-9.25 0-5.1094 4.1406-9.25 9.25-9.25 5.1094 0 9.25 4.1406 9.25 9.25"/>
  <path d="m329.75 547.12c0 5.1055-4.1406 9.25-9.25 9.25s-9.25-4.1445-9.25-9.25c0-5.1094 4.1406-9.25 9.25-9.25s9.25 4.1406 9.25 9.25"/>
 </g>
</svg>
