<?xml version="1.0" encoding="UTF-8"?>
<svg width="752pt" height="752pt" version="1.1" viewBox="0 0 752 752" xmlns="http://www.w3.org/2000/svg">
 <g fill="#fff">
  <path d="m279.8 376c0-10.574 5.6406-20.344 14.801-25.633 9.1562-5.2852 20.441-5.2852 29.598 0 9.1602 5.2891 14.801 15.059 14.801 25.633h29.598v-44.398c-10.574 0-20.348-5.6406-25.633-14.797-5.2891-9.1602-5.2891-20.441 0-29.602 5.2852-9.1562 15.059-14.797 25.633-14.797v-36.594c-2.3164 0.13281-4.6055 0.13281-6.9453 0.39453-28.543 3.4688-55.059 16.539-75.199 37.062-20.137 20.52-32.703 47.277-35.633 75.883-0.85938 8.9336-0.78906 17.93 0.21484 26.848z"/>
  <path d="m413 376c0-10.574 5.6406-20.344 14.801-25.633 9.1562-5.2852 20.441-5.2852 29.598 0 9.1562 5.2891 14.801 15.059 14.801 25.633h28.805-0.003906c0.52734-4.6992 0.79297-9.4219 0.79688-14.152 0.058594-32.145-12.168-63.098-34.176-86.523-22.008-23.43-52.133-37.566-84.219-39.516v43.996c0 1.9648-0.78125 3.8477-2.168 5.2344-1.3867 1.3867-3.2695 2.168-5.2344 2.1641h-7.3984c-5.2891 0-10.172 2.8242-12.816 7.4023-2.6445 4.5781-2.6445 10.219 0 14.797 2.6445 4.582 7.5273 7.4023 12.816 7.4023h7.3984c1.9648 0 3.8477 0.77734 5.2344 2.1641 1.3867 1.3906 2.168 3.2734 2.168 5.2344v51.797z"/>
  <path d="m601.69 194.71c0 18.391-14.906 33.301-33.297 33.301s-33.301-14.91-33.301-33.301c0-18.387 14.91-33.297 33.301-33.297s33.297 14.91 33.297 33.297"/>
  <path d="m483.04 454.07 9.5625-11.301 27.953 23.652-9.5625 11.301z"/>
  <path d="m224.46 235.26 9.5625-11.301 34.941 29.57-9.5625 11.301z"/>
  <path d="m478.59 257.3 41.301-34.938 9.5586 11.301-41.301 34.938z"/>
  <path d="m222.56 473.95 36.848-31.168 9.5586 11.301-36.848 31.168z"/>
  <path d="m533.58 479.6h66.598v66.598h-66.598z"/>
  <path d="m149.85 546.2h74.922l-37.465-66.598z"/>
  <path d="m160.74 235.41 22.867-12.637 22.863 12.637-4.3633-26.77 18.5-18.961-25.566-3.9062-11.434-24.359-11.434 24.359-25.566 3.9062 18.5 18.961z"/>
  <path d="m464.8 390.8c-1.9609 0-3.8438-0.77734-5.2305-2.168-1.3906-1.3867-2.168-3.2695-2.168-5.2305v-7.4023c0-5.2852-2.8203-10.172-7.3984-12.816-4.582-2.6406-10.223-2.6406-14.801 0-4.5781 2.6445-7.3984 7.5312-7.3984 12.816v7.4023c0 1.9609-0.78125 3.8438-2.168 5.2305-1.3867 1.3906-3.2695 2.168-5.2344 2.168h-36.996v29.598c0 1.9648-0.78125 3.8477-2.168 5.2344-1.3867 1.3867-3.2695 2.168-5.2344 2.168h-7.3984c-5.2891 0-10.172 2.8203-12.816 7.3984-2.6445 4.5781-2.6445 10.219 0 14.801 2.6445 4.5781 7.5273 7.3984 12.816 7.3984h7.3984c1.9648 0 3.8477 0.77734 5.2344 2.168 1.3867 1.3867 2.168 3.2695 2.168 5.2305v32.984h55.496v-0.58203c-0.058594-14.793 6.4258-28.859 17.715-38.426 20.918-17.547 35.59-41.395 41.824-67.973z"/>
  <path d="m313.11 497.78h55.496v-25.582c-10.574 0-20.348-5.6445-25.633-14.801-5.2891-9.1562-5.2891-20.441 0-29.598 5.2852-9.1602 15.059-14.801 25.633-14.801v-22.199h-37c-1.9609 0-3.8438-0.77734-5.2305-2.168-1.3867-1.3867-2.168-3.2695-2.168-5.2305v-7.4023c0-5.2852-2.8203-10.172-7.3984-12.816-4.5781-2.6406-10.223-2.6406-14.801 0-4.5781 2.6445-7.3984 7.5312-7.3984 12.816v7.4023c0 1.9609-0.78125 3.8438-2.168 5.2305-1.3867 1.3906-3.2695 2.168-5.2344 2.168h-33.633c6.3047 26.879 21.234 50.957 42.512 68.551 11.008 9.4648 17.246 23.332 17.023 37.848z"/>
  <path d="m313.11 537.72c0 0.36328 0.046875 0.71484 0.054687 1.0781l125.68-0.003906c0.007812-0.36328 0.054688-0.71484 0.054688-1.0781v-25.715h-125.8z"/>
  <path d="m366.07 590.59h19.863c11.262 0.003906 22.23-3.582 31.316-10.234s15.816-16.027 19.211-26.766h-120.92c3.3945 10.738 10.125 20.113 19.211 26.766 9.0859 6.6523 20.055 10.238 31.316 10.234z"/>
 </g>
</svg>
